<svg width="20" height="20" viewBox="0 0 20 20" fill="none" xmlns="http://www.w3.org/2000/svg">
<circle cx="10" cy="10" r="10" transform="rotate(180 10 10)" fill="black"/>
<g clip-path="url(#clip0_7_29)">
<path d="M6 10.0027C6.00852 10.3384 6.12808 10.6027 6.42126 10.8769L10.5237 14.7076C10.7347 14.9075 10.9765 15 11.2789 15C11.8781 15 12.3777 14.533 12.3777 13.9645C12.3777 13.6815 12.2539 13.4172 12.0157 13.197L8.54658 10.0067L12.0157 6.80833C12.2496 6.59217 12.3777 6.3251 12.3777 6.03677C12.3777 5.47231 11.8781 5.00125 11.2789 5.00125C10.985 5.00125 10.7347 5.09372 10.5237 5.2949L6.42126 9.12837C6.12382 9.40386 6 9.67094 6 10.0027Z" fill="white"/>
</g>
<defs>
<clipPath id="clip0_7_29">
<rect width="8" height="10" fill="white" transform="translate(14 15) rotate(-180)"/>
</clipPath>
</defs>
</svg>
